<svg version="1.1" viewBox="0.0 0.0 726.0 128.0" fill="none" stroke="none" stroke-linecap="square"
     stroke-miterlimit="10" width="726" height="128" xmlns:xlink="http://www.w3.org/1999/xlink"
     xmlns="http://www.w3.org/2000/svg">
    <path fill="#ffffff" d="M0 0L726.0 0L726.0 128.0L0 128.0L0 0Z" fill-rule="nonzero"/>
    <path stroke="#333333" stroke-width="1.0" stroke-linecap="butt" d="M33.5 114.5L719.5 114.5" fill-rule="nonzero"/>
    <path stroke="#cccccc" stroke-width="1.0" stroke-linecap="butt" d="M33.5 93.5L719.5 93.5" fill-rule="nonzero"/>
    <path stroke="#cccccc" stroke-width="1.0" stroke-linecap="butt" d="M33.5 72.5L719.5 72.5" fill-rule="nonzero"/>
    <path stroke="#cccccc" stroke-width="1.0" stroke-linecap="butt" d="M33.5 50.5L719.5 50.5" fill-rule="nonzero"/>
    <path stroke="#cccccc" stroke-width="1.0" stroke-linecap="butt" d="M33.5 29.5L719.5 29.5" fill-rule="nonzero"/>
    <clipPath id="id_0">
        <path d="M33.4 29.666666L719.6 29.666666L719.6 114.6L33.4 114.6L33.4 29.666666Z" clip-rule="nonzero"/>
    </clipPath>
    <path stroke="#000000" stroke-width="2.0" stroke-linecap="butt" stroke-opacity="0.0" clip-path="url(#id_0)"
          d="M63.0 115.0L44.0 115.0L44.0 102.0C44.0 100.89543 44.89543 100.0 46.0 100.0L61.0 100.0C62.10457 100.0 63.0 100.89543 63.0 102.0Z"
          fill-rule="nonzero"/>
    <path fill="#4285f4" clip-path="url(#id_0)"
          d="M63.0 115.0L44.0 115.0L44.0 102.0C44.0 100.89543 44.89543 100.0 46.0 100.0L61.0 100.0C62.10457 100.0 63.0 100.89543 63.0 102.0Z"
          fill-rule="nonzero"/>
    <path stroke="#000000" stroke-width="2.0" stroke-linecap="butt" stroke-opacity="0.0" clip-path="url(#id_0)"
          d="M93.0 115.0L74.0 115.0L74.0 105.0C74.0 103.89543 74.89543 103.0 76.0 103.0L91.0 103.0C92.10457 103.0 93.0 103.89543 93.0 105.0Z"
          fill-rule="nonzero"/>
    <path fill="#4285f4" clip-path="url(#id_0)"
          d="M93.0 115.0L74.0 115.0L74.0 105.0C74.0 103.89543 74.89543 103.0 76.0 103.0L91.0 103.0C92.10457 103.0 93.0 103.89543 93.0 105.0Z"
          fill-rule="nonzero"/>
    <path stroke="#000000" stroke-width="2.0" stroke-linecap="butt" stroke-opacity="0.0" clip-path="url(#id_0)"
          d="M122.0 115.0L103.0 115.0L103.0 102.0C103.0 100.89543 103.89543 100.0 105.0 100.0L120.0 100.0C121.10457 100.0 122.0 100.89543 122.0 102.0Z"
          fill-rule="nonzero"/>
    <path fill="#4285f4" clip-path="url(#id_0)"
          d="M122.0 115.0L103.0 115.0L103.0 102.0C103.0 100.89543 103.89543 100.0 105.0 100.0L120.0 100.0C121.10457 100.0 122.0 100.89543 122.0 102.0Z"
          fill-rule="nonzero"/>
    <path stroke="#000000" stroke-width="2.0" stroke-linecap="butt" stroke-opacity="0.0" clip-path="url(#id_0)"
          d="M151.0 115.0L132.0 115.0L132.0 97.0C132.0 95.89543 132.89543 95.0 134.0 95.0L149.0 95.0C150.10457 95.0 151.0 95.89543 151.0 97.0Z"
          fill-rule="nonzero"/>
    <path fill="#4285f4" clip-path="url(#id_0)"
          d="M151.0 115.0L132.0 115.0L132.0 97.0C132.0 95.89543 132.89543 95.0 134.0 95.0L149.0 95.0C150.10457 95.0 151.0 95.89543 151.0 97.0Z"
          fill-rule="nonzero"/>
    <path stroke="#000000" stroke-width="2.0" stroke-linecap="butt" stroke-opacity="0.0" clip-path="url(#id_0)"
          d="M181.0 115.0L162.0 115.0L162.0 64.0C162.0 62.89543 162.89543 62.0 164.0 62.0L179.0 62.0C180.10457 62.0 181.0 62.89543 181.0 64.0Z"
          fill-rule="nonzero"/>
    <path fill="#4285f4" clip-path="url(#id_0)"
          d="M181.0 115.0L162.0 115.0L162.0 64.0C162.0 62.89543 162.89543 62.0 164.0 62.0L179.0 62.0C180.10457 62.0 181.0 62.89543 181.0 64.0Z"
          fill-rule="nonzero"/>
    <path stroke="#000000" stroke-width="2.0" stroke-linecap="butt" stroke-opacity="0.0" clip-path="url(#id_0)"
          d="M210.0 115.0L191.0 115.0L191.0 54.0C191.0 52.89543 191.89543 52.0 193.0 52.0L208.0 52.0C209.10457 52.0 210.0 52.89543 210.0 54.0Z"
          fill-rule="nonzero"/>
    <path fill="#4285f4" clip-path="url(#id_0)"
          d="M210.0 115.0L191.0 115.0L191.0 54.0C191.0 52.89543 191.89543 52.0 193.0 52.0L208.0 52.0C209.10457 52.0 210.0 52.89543 210.0 54.0Z"
          fill-rule="nonzero"/>
    <path stroke="#000000" stroke-width="2.0" stroke-linecap="butt" stroke-opacity="0.0" clip-path="url(#id_0)"
          d="M240.0 115.0L221.0 115.0L221.0 56.0C221.0 54.89543 221.89543 54.0 223.0 54.0L238.0 54.0C239.10457 54.0 240.0 54.89543 240.0 56.0Z"
          fill-rule="nonzero"/>
    <path fill="#4285f4" clip-path="url(#id_0)"
          d="M240.0 115.0L221.0 115.0L221.0 56.0C221.0 54.89543 221.89543 54.0 223.0 54.0L238.0 54.0C239.10457 54.0 240.0 54.89543 240.0 56.0Z"
          fill-rule="nonzero"/>
    <path stroke="#000000" stroke-width="2.0" stroke-linecap="butt" stroke-opacity="0.0" clip-path="url(#id_0)"
          d="M269.0 115.0L250.0 115.0L250.0 57.0C250.0 55.89543 250.89543 55.0 252.0 55.0L267.0 55.0C268.10458 55.0 269.0 55.89543 269.0 57.0Z"
          fill-rule="nonzero"/>
    <path fill="#4285f4" clip-path="url(#id_0)"
          d="M269.0 115.0L250.0 115.0L250.0 57.0C250.0 55.89543 250.89543 55.0 252.0 55.0L267.0 55.0C268.10458 55.0 269.0 55.89543 269.0 57.0Z"
          fill-rule="nonzero"/>
    <path stroke="#000000" stroke-width="2.0" stroke-linecap="butt" stroke-opacity="0.0" clip-path="url(#id_0)"
          d="M298.0 115.0L279.0 115.0L279.0 56.0C279.0 54.89543 279.89542 54.0 281.0 54.0L296.0 54.0C297.10458 54.0 298.0 54.89543 298.0 56.0Z"
          fill-rule="nonzero"/>
    <path fill="#4285f4" clip-path="url(#id_0)"
          d="M298.0 115.0L279.0 115.0L279.0 56.0C279.0 54.89543 279.89542 54.0 281.0 54.0L296.0 54.0C297.10458 54.0 298.0 54.89543 298.0 56.0Z"
          fill-rule="nonzero"/>
    <path stroke="#000000" stroke-width="2.0" stroke-linecap="butt" stroke-opacity="0.0" clip-path="url(#id_0)"
          d="M328.0 115.0L309.0 115.0L309.0 54.0C309.0 52.89543 309.89542 52.0 311.0 52.0L326.0 52.0C327.10458 52.0 328.0 52.89543 328.0 54.0Z"
          fill-rule="nonzero"/>
    <path fill="#4285f4" clip-path="url(#id_0)"
          d="M328.0 115.0L309.0 115.0L309.0 54.0C309.0 52.89543 309.89542 52.0 311.0 52.0L326.0 52.0C327.10458 52.0 328.0 52.89543 328.0 54.0Z"
          fill-rule="nonzero"/>
    <path stroke="#000000" stroke-width="2.0" stroke-linecap="butt" stroke-opacity="0.0" clip-path="url(#id_0)"
          d="M357.0 115.0L338.0 115.0L338.0 46.0C338.0 44.89543 338.89542 44.0 340.0 44.0L355.0 44.0C356.10458 44.0 357.0 44.89543 357.0 46.0Z"
          fill-rule="nonzero"/>
    <path fill="#4285f4" clip-path="url(#id_0)"
          d="M357.0 115.0L338.0 115.0L338.0 46.0C338.0 44.89543 338.89542 44.0 340.0 44.0L355.0 44.0C356.10458 44.0 357.0 44.89543 357.0 46.0Z"
          fill-rule="nonzero"/>
    <path stroke="#000000" stroke-width="2.0" stroke-linecap="butt" stroke-opacity="0.0" clip-path="url(#id_0)"
          d="M387.0 115.0L368.0 115.0L368.0 44.0C368.0 42.89543 368.89542 42.0 370.0 42.0L385.0 42.0C386.10458 42.0 387.0 42.89543 387.0 44.0Z"
          fill-rule="nonzero"/>
    <path fill="#4285f4" clip-path="url(#id_0)"
          d="M387.0 115.0L368.0 115.0L368.0 44.0C368.0 42.89543 368.89542 42.0 370.0 42.0L385.0 42.0C386.10458 42.0 387.0 42.89543 387.0 44.0Z"
          fill-rule="nonzero"/>
    <path stroke="#000000" stroke-width="2.0" stroke-linecap="butt" stroke-opacity="0.0" clip-path="url(#id_0)"
          d="M416.0 115.0L397.0 115.0L397.0 45.0C397.0 43.89543 397.89542 43.0 399.0 43.0L414.0 43.0C415.10458 43.0 416.0 43.89543 416.0 45.0Z"
          fill-rule="nonzero"/>
    <path fill="#4285f4" clip-path="url(#id_0)"
          d="M416.0 115.0L397.0 115.0L397.0 45.0C397.0 43.89543 397.89542 43.0 399.0 43.0L414.0 43.0C415.10458 43.0 416.0 43.89543 416.0 45.0Z"
          fill-rule="nonzero"/>
    <path stroke="#000000" stroke-width="2.0" stroke-linecap="butt" stroke-opacity="0.0" clip-path="url(#id_0)"
          d="M445.0 115.0L426.0 115.0L426.0 43.0C426.0 41.89543 426.89542 41.0 428.0 41.0L443.0 41.0C444.10458 41.0 445.0 41.89543 445.0 43.0Z"
          fill-rule="nonzero"/>
    <path fill="#4285f4" clip-path="url(#id_0)"
          d="M445.0 115.0L426.0 115.0L426.0 43.0C426.0 41.89543 426.89542 41.0 428.0 41.0L443.0 41.0C444.10458 41.0 445.0 41.89543 445.0 43.0Z"
          fill-rule="nonzero"/>
    <path stroke="#000000" stroke-width="2.0" stroke-linecap="butt" stroke-opacity="0.0" clip-path="url(#id_0)"
          d="M475.0 115.0L456.0 115.0L456.0 43.0C456.0 41.89543 456.89542 41.0 458.0 41.0L473.0 41.0C474.10458 41.0 475.0 41.89543 475.0 43.0Z"
          fill-rule="nonzero"/>
    <path fill="#4285f4" clip-path="url(#id_0)"
          d="M475.0 115.0L456.0 115.0L456.0 43.0C456.0 41.89543 456.89542 41.0 458.0 41.0L473.0 41.0C474.10458 41.0 475.0 41.89543 475.0 43.0Z"
          fill-rule="nonzero"/>
    <path stroke="#000000" stroke-width="2.0" stroke-linecap="butt" stroke-opacity="0.0" clip-path="url(#id_0)"
          d="M504.0 115.0L485.0 115.0L485.0 39.0C485.0 37.89543 485.89542 37.0 487.0 37.0L502.0 37.0C503.10458 37.0 504.0 37.89543 504.0 39.0Z"
          fill-rule="nonzero"/>
    <path fill="#4285f4" clip-path="url(#id_0)"
          d="M504.0 115.0L485.0 115.0L485.0 39.0C485.0 37.89543 485.89542 37.0 487.0 37.0L502.0 37.0C503.10458 37.0 504.0 37.89543 504.0 39.0Z"
          fill-rule="nonzero"/>
    <path stroke="#000000" stroke-width="2.0" stroke-linecap="butt" stroke-opacity="0.0" clip-path="url(#id_0)"
          d="M533.0 115.0L514.0 115.0L514.0 56.0C514.0 54.89543 514.89545 54.0 516.0 54.0L531.0 54.0C532.10455 54.0 533.0 54.89543 533.0 56.0Z"
          fill-rule="nonzero"/>
    <path fill="#4285f4" clip-path="url(#id_0)"
          d="M533.0 115.0L514.0 115.0L514.0 56.0C514.0 54.89543 514.89545 54.0 516.0 54.0L531.0 54.0C532.10455 54.0 533.0 54.89543 533.0 56.0Z"
          fill-rule="nonzero"/>
    <path stroke="#000000" stroke-width="2.0" stroke-linecap="butt" stroke-opacity="0.0" clip-path="url(#id_0)"
          d="M563.0 115.0L544.0 115.0L544.0 60.0C544.0 58.89543 544.89545 58.0 546.0 58.0L561.0 58.0C562.10455 58.0 563.0 58.89543 563.0 60.0Z"
          fill-rule="nonzero"/>
    <path fill="#4285f4" clip-path="url(#id_0)"
          d="M563.0 115.0L544.0 115.0L544.0 60.0C544.0 58.89543 544.89545 58.0 546.0 58.0L561.0 58.0C562.10455 58.0 563.0 58.89543 563.0 60.0Z"
          fill-rule="nonzero"/>
    <path stroke="#000000" stroke-width="2.0" stroke-linecap="butt" stroke-opacity="0.0" clip-path="url(#id_0)"
          d="M592.0 115.0L573.0 115.0L573.0 64.0C573.0 62.89543 573.89545 62.0 575.0 62.0L590.0 62.0C591.10455 62.0 592.0 62.89543 592.0 64.0Z"
          fill-rule="nonzero"/>
    <path fill="#4285f4" clip-path="url(#id_0)"
          d="M592.0 115.0L573.0 115.0L573.0 64.0C573.0 62.89543 573.89545 62.0 575.0 62.0L590.0 62.0C591.10455 62.0 592.0 62.89543 592.0 64.0Z"
          fill-rule="nonzero"/>
    <path stroke="#000000" stroke-width="2.0" stroke-linecap="butt" stroke-opacity="0.0" clip-path="url(#id_0)"
          d="M622.0 115.0L603.0 115.0L603.0 59.0C603.0 57.89543 603.89545 57.0 605.0 57.0L620.0 57.0C621.10455 57.0 622.0 57.89543 622.0 59.0Z"
          fill-rule="nonzero"/>
    <path fill="#4285f4" clip-path="url(#id_0)"
          d="M622.0 115.0L603.0 115.0L603.0 59.0C603.0 57.89543 603.89545 57.0 605.0 57.0L620.0 57.0C621.10455 57.0 622.0 57.89543 622.0 59.0Z"
          fill-rule="nonzero"/>
    <path stroke="#000000" stroke-width="2.0" stroke-linecap="butt" stroke-opacity="0.0" clip-path="url(#id_0)"
          d="M651.0 115.0L632.0 115.0L632.0 45.0C632.0 43.89543 632.89545 43.0 634.0 43.0L649.0 43.0C650.10455 43.0 651.0 43.89543 651.0 45.0Z"
          fill-rule="nonzero"/>
    <path fill="#4285f4" clip-path="url(#id_0)"
          d="M651.0 115.0L632.0 115.0L632.0 45.0C632.0 43.89543 632.89545 43.0 634.0 43.0L649.0 43.0C650.10455 43.0 651.0 43.89543 651.0 45.0Z"
          fill-rule="nonzero"/>
    <path stroke="#000000" stroke-width="2.0" stroke-linecap="butt" stroke-opacity="0.0" clip-path="url(#id_0)"
          d="M680.0 115.0L661.0 115.0L661.0 38.0C661.0 36.89543 661.89545 36.0 663.0 36.0L678.0 36.0C679.10455 36.0 680.0 36.89543 680.0 38.0Z"
          fill-rule="nonzero"/>
    <path fill="#4285f4" clip-path="url(#id_0)"
          d="M680.0 115.0L661.0 115.0L661.0 38.0C661.0 36.89543 661.89545 36.0 663.0 36.0L678.0 36.0C679.10455 36.0 680.0 36.89543 680.0 38.0Z"
          fill-rule="nonzero"/>
    <path stroke="#000000" stroke-width="2.0" stroke-linecap="butt" stroke-opacity="0.0" clip-path="url(#id_0)"
          d="M710.0 115.0L691.0 115.0L691.0 38.0C691.0 36.89543 691.89545 36.0 693.0 36.0L708.0 36.0C709.10455 36.0 710.0 36.89543 710.0 38.0Z"
          fill-rule="nonzero"/>
    <path fill="#4285f4" clip-path="url(#id_0)"
          d="M710.0 115.0L691.0 115.0L691.0 38.0C691.0 36.89543 691.89545 36.0 693.0 36.0L708.0 36.0C709.10455 36.0 710.0 36.89543 710.0 38.0Z"
          fill-rule="nonzero"/>
    <path stroke="#ea4335" stroke-width="2.0" stroke-linecap="butt" clip-path="url(#id_0)"
          d="M53.236618 113.56806L82.6242 113.04147L112.01178 112.9438L141.39935 112.85037L170.78694 112.756096L200.17451 112.675835L229.5621 112.16666L258.94968 111.788704L288.33725 111.103294L317.72485 110.20895L347.11243 109.33414L376.5 108.44234L405.88757 108.416855L435.27515 108.34466L464.66275 108.29794L494.05032 104.62033L523.4379 103.43127L552.8255 99.90653L582.2131 99.481865L611.60065 96.127L640.9882 97.0188L670.3758 98.83637L699.76337 106.0642"
          fill-rule="nonzero"/>
    <path fill="#000000" fill-opacity="0.0" clip-path="url(#id_0)"
          d="M56.236618 113.56806C56.236618 115.224915 54.89347 116.56806 53.236618 116.56806C51.57976 116.56806 50.236618 115.224915 50.236618 113.56806C50.236618 111.91121 51.57976 110.56806 53.236618 110.56806C54.89347 110.56806 56.236618 111.91121 56.236618 113.56806Z"
          fill-rule="nonzero"/>
    <path fill="#000000" fill-opacity="0.0" clip-path="url(#id_0)"
          d="M85.6242 113.04147C85.6242 114.698326 84.28105 116.04147 82.6242 116.04147C80.96735 116.04147 79.6242 114.698326 79.6242 113.04147C79.6242 111.38462 80.96735 110.04147 82.6242 110.04147C84.28105 110.04147 85.6242 111.38462 85.6242 113.04147Z"
          fill-rule="nonzero"/>
    <path fill="#000000" fill-opacity="0.0" clip-path="url(#id_0)"
          d="M115.01178 112.9438C115.01178 114.600655 113.66863 115.9438 112.01178 115.9438C110.35492 115.9438 109.01178 114.600655 109.01178 112.9438C109.01178 111.28695 110.35492 109.9438 112.01178 109.9438C113.66863 109.9438 115.01178 111.28695 115.01178 112.9438Z"
          fill-rule="nonzero"/>
    <path fill="#000000" fill-opacity="0.0" clip-path="url(#id_0)"
          d="M144.39935 112.85037C144.39935 114.507225 143.05621 115.85037 141.39935 115.85037C139.74251 115.85037 138.39935 114.507225 138.39935 112.85037C138.39935 111.19352 139.74251 109.85037 141.39935 109.85037C143.05621 109.85037 144.39935 111.19352 144.39935 112.85037Z"
          fill-rule="nonzero"/>
    <path fill="#000000" fill-opacity="0.0" clip-path="url(#id_0)"
          d="M173.78694 112.756096C173.78694 114.41295 172.44379 115.756096 170.78694 115.756096C169.13008 115.756096 167.78694 114.41295 167.78694 112.756096C167.78694 111.09924 169.13008 109.756096 170.78694 109.756096C172.44379 109.756096 173.78694 111.09924 173.78694 112.756096Z"
          fill-rule="nonzero"/>
    <path fill="#000000" fill-opacity="0.0" clip-path="url(#id_0)"
          d="M203.17451 112.675835C203.17451 114.33269 201.83138 115.675835 200.17451 115.675835C198.51767 115.675835 197.17451 114.33269 197.17451 112.675835C197.17451 111.01898 198.51767 109.675835 200.17451 109.675835C201.83138 109.675835 203.17451 111.01898 203.17451 112.675835Z"
          fill-rule="nonzero"/>
    <path fill="#000000" fill-opacity="0.0" clip-path="url(#id_0)"
          d="M232.5621 112.16666C232.5621 113.82352 231.21895 115.16666 229.5621 115.16666C227.90524 115.16666 226.5621 113.82352 226.5621 112.16666C226.5621 110.5098 227.90524 109.16666 229.5621 109.16666C231.21895 109.16666 232.5621 110.5098 232.5621 112.16666Z"
          fill-rule="nonzero"/>
    <path fill="#000000" fill-opacity="0.0" clip-path="url(#id_0)"
          d="M261.94968 111.788704C261.94968 113.445564 260.60654 114.788704 258.94968 114.788704C257.29282 114.788704 255.94968 113.445564 255.94968 111.788704C255.94968 110.13185 257.29282 108.788704 258.94968 108.788704C260.60654 108.788704 261.94968 110.13185 261.94968 111.788704Z"
          fill-rule="nonzero"/>
    <path fill="#000000" fill-opacity="0.0" clip-path="url(#id_0)"
          d="M291.33725 111.103294C291.33725 112.76015 289.9941 114.103294 288.33725 114.103294C286.68042 114.103294 285.33725 112.76015 285.33725 111.103294C285.33725 109.44644 286.68042 108.103294 288.33725 108.103294C289.9941 108.103294 291.33725 109.44644 291.33725 111.103294Z"
          fill-rule="nonzero"/>
    <path fill="#000000" fill-opacity="0.0" clip-path="url(#id_0)"
          d="M320.72485 110.20895C320.72485 111.8658 319.38168 113.20895 317.72485 113.20895C316.068 113.20895 314.72485 111.8658 314.72485 110.20895C314.72485 108.55209 316.068 107.20895 317.72485 107.20895C319.38168 107.20895 320.72485 108.55209 320.72485 110.20895Z"
          fill-rule="nonzero"/>
    <path fill="#000000" fill-opacity="0.0" clip-path="url(#id_0)"
          d="M350.11243 109.33414C350.11243 110.99099 348.7693 112.33414 347.11243 112.33414C345.45557 112.33414 344.11243 110.99099 344.11243 109.33414C344.11243 107.67728 345.45557 106.33414 347.11243 106.33414C348.7693 106.33414 350.11243 107.67728 350.11243 109.33414Z"
          fill-rule="nonzero"/>
    <path fill="#000000" fill-opacity="0.0" clip-path="url(#id_0)"
          d="M379.5 108.44234C379.5 110.09919 378.15686 111.44234 376.5 111.44234C374.84314 111.44234 373.5 110.09919 373.5 108.44234C373.5 106.78548 374.84314 105.44234 376.5 105.44234C378.15686 105.44234 379.5 106.78548 379.5 108.44234Z"
          fill-rule="nonzero"/>
    <path fill="#000000" fill-opacity="0.0" clip-path="url(#id_0)"
          d="M408.88757 108.416855C408.88757 110.07371 407.54443 111.416855 405.88757 111.416855C404.2307 111.416855 402.88757 110.07371 402.88757 108.416855C402.88757 106.76 404.2307 105.416855 405.88757 105.416855C407.54443 105.416855 408.88757 106.76 408.88757 108.416855Z"
          fill-rule="nonzero"/>
    <path fill="#000000" fill-opacity="0.0" clip-path="url(#id_0)"
          d="M438.27515 108.34466C438.27515 110.00151 436.932 111.34466 435.27515 111.34466C433.61832 111.34466 432.27515 110.00151 432.27515 108.34466C432.27515 106.687805 433.61832 105.34466 435.27515 105.34466C436.932 105.34466 438.27515 106.687805 438.27515 108.34466Z"
          fill-rule="nonzero"/>
    <path fill="#000000" fill-opacity="0.0" clip-path="url(#id_0)"
          d="M467.66275 108.29794C467.66275 109.9548 466.31958 111.29794 464.66275 111.29794C463.0059 111.29794 461.66275 109.9548 461.66275 108.29794C461.66275 106.64109 463.0059 105.29794 464.66275 105.29794C466.31958 105.29794 467.66275 106.64109 467.66275 108.29794Z"
          fill-rule="nonzero"/>
    <path fill="#000000" fill-opacity="0.0" clip-path="url(#id_0)"
          d="M497.05032 104.62033C497.05032 106.27719 495.70718 107.62033 494.05032 107.62033C492.39346 107.62033 491.05032 106.27719 491.05032 104.62033C491.05032 102.96348 492.39346 101.62033 494.05032 101.62033C495.70718 101.62033 497.05032 102.96348 497.05032 104.62033Z"
          fill-rule="nonzero"/>
    <path fill="#000000" fill-opacity="0.0" clip-path="url(#id_0)"
          d="M526.4379 103.43127C526.4379 105.08812 525.0947 106.43127 523.4379 106.43127C521.78107 106.43127 520.4379 105.08812 520.4379 103.43127C520.4379 101.774414 521.78107 100.43127 523.4379 100.43127C525.0947 100.43127 526.4379 101.774414 526.4379 103.43127Z"
          fill-rule="nonzero"/>
    <path fill="#000000" fill-opacity="0.0" clip-path="url(#id_0)"
          d="M555.8255 99.90653C555.8255 101.563385 554.48236 102.90653 552.8255 102.90653C551.16864 102.90653 549.8255 101.563385 549.8255 99.90653C549.8255 98.24968 551.16864 96.90653 552.8255 96.90653C554.48236 96.90653 555.8255 98.24968 555.8255 99.90653Z"
          fill-rule="nonzero"/>
    <path fill="#000000" fill-opacity="0.0" clip-path="url(#id_0)"
          d="M585.2131 99.481865C585.2131 101.13872 583.86993 102.481865 582.2131 102.481865C580.5562 102.481865 579.2131 101.13872 579.2131 99.481865C579.2131 97.82501 580.5562 96.481865 582.2131 96.481865C583.86993 96.481865 585.2131 97.82501 585.2131 99.481865Z"
          fill-rule="nonzero"/>
    <path fill="#000000" fill-opacity="0.0" clip-path="url(#id_0)"
          d="M614.60065 96.127C614.60065 97.78385 613.2575 99.127 611.60065 99.127C609.9438 99.127 608.60065 97.78385 608.60065 96.127C608.60065 94.470146 609.9438 93.127 611.60065 93.127C613.2575 93.127 614.60065 94.470146 614.60065 96.127Z"
          fill-rule="nonzero"/>
    <path fill="#000000" fill-opacity="0.0" clip-path="url(#id_0)"
          d="M643.9882 97.0188C643.9882 98.67565 642.6451 100.0188 640.9882 100.0188C639.33136 100.0188 637.9882 98.67565 637.9882 97.0188C637.9882 95.361946 639.33136 94.0188 640.9882 94.0188C642.6451 94.0188 643.9882 95.361946 643.9882 97.0188Z"
          fill-rule="nonzero"/>
    <path fill="#000000" fill-opacity="0.0" clip-path="url(#id_0)"
          d="M673.3758 98.83637C673.3758 100.493225 672.03265 101.83637 670.3758 101.83637C668.71893 101.83637 667.3758 100.493225 667.3758 98.83637C667.3758 97.17952 668.71893 95.83637 670.3758 95.83637C672.03265 95.83637 673.3758 97.17952 673.3758 98.83637Z"
          fill-rule="nonzero"/>
    <path fill="#000000" fill-opacity="0.0" clip-path="url(#id_0)"
          d="M702.76337 106.0642C702.76337 107.721054 701.4202 109.0642 699.76337 109.0642C698.1065 109.0642 696.76337 107.721054 696.76337 106.0642C696.76337 104.40735 698.1065 103.0642 699.76337 103.0642C701.4202 103.0642 702.76337 104.40735 702.76337 106.0642Z"
          fill-rule="nonzero"/>
    <path fill="#000000"
          d="M20.9 114.36562Q20.9 112.83437 21.2125 111.9125Q21.525 110.975 22.134375 110.475Q22.759375 109.975 23.696875 109.975Q24.384375 109.975 24.9 110.25625Q25.43125 110.5375 25.775 111.06875Q26.11875 111.58437 26.30625 112.33437Q26.49375 113.08437 26.49375 114.36562Q26.49375 115.88125 26.18125 116.80312Q25.884375 117.725 25.259375 118.24062Q24.65 118.74062 23.696875 118.74062Q22.4625 118.74062 21.74375 117.85Q20.9 116.7875 20.9 114.36562ZM21.978125 114.36562Q21.978125 116.475 22.478125 117.17812Q22.978125 117.88125 23.696875 117.88125Q24.43125 117.88125 24.915625 117.17812Q25.415625 116.475 25.415625 114.36562Q25.415625 112.24062 24.915625 111.55312Q24.43125 110.85 23.68125 110.85Q22.9625 110.85 22.525 111.45937Q21.978125 112.24062 21.978125 114.36562Z"
          fill-rule="nonzero"/>
    <path fill="#000000"
          d="M13.9 95.11667L15.009375 95.02292Q15.134375 95.83542 15.571875 96.24167Q16.025 96.64792 16.665625 96.64792Q17.415625 96.64792 17.946875 96.06979Q18.478125 95.49167 18.478125 94.55417Q18.478125 93.64792 17.9625 93.13229Q17.4625 92.60104 16.634375 92.60104Q16.134375 92.60104 15.7125 92.83542Q15.30625 93.06979 15.071875 93.42917L14.0875 93.30417L14.915625 88.89792L19.196875 88.89792L19.196875 89.89792L15.759375 89.89792L15.30625 92.21042Q16.071875 91.66354 16.915625 91.66354Q18.040625 91.66354 18.80625 92.44479Q19.5875 93.22604 19.5875 94.46042Q19.5875 95.61667 18.915625 96.47604Q18.0875 97.50729 16.665625 97.50729Q15.49375 97.50729 14.74375 96.85104Q14.009375 96.19479 13.9 95.11667ZM20.9 93.13229Q20.9 91.60104 21.2125 90.67917Q21.525 89.74167 22.134375 89.24167Q22.759375 88.74167 23.696875 88.74167Q24.384375 88.74167 24.9 89.02292Q25.43125 89.30417 25.775 89.83542Q26.11875 90.35104 26.30625 91.10104Q26.49375 91.85104 26.49375 93.13229Q26.49375 94.64792 26.18125 95.56979Q25.884375 96.49167 25.259375 97.00729Q24.65 97.50729 23.696875 97.50729Q22.4625 97.50729 21.74375 96.61667Q20.9 95.55417 20.9 93.13229ZM21.978125 93.13229Q21.978125 95.24167 22.478125 95.94479Q22.978125 96.64792 23.696875 96.64792Q24.43125 96.64792 24.915625 95.94479Q25.415625 95.24167 25.415625 93.13229Q25.415625 91.00729 24.915625 90.31979Q24.43125 89.61667 23.68125 89.61667Q22.9625 89.61667 22.525 90.22604Q21.978125 91.00729 21.978125 93.13229Z"
          fill-rule="nonzero"/>
    <path fill="#000000"
          d="M10.86875 76.13333L9.821875 76.13333L9.821875 69.41458Q9.43125 69.77396 8.80625 70.14896Q8.196875 70.50833 7.7125 70.68021L7.7125 69.66458Q8.5875 69.24271 9.24375 68.66458Q9.915625 68.07083 10.196875 67.50833L10.86875 67.50833L10.86875 76.13333ZM13.9 71.89896Q13.9 70.36771 14.2125 69.44583Q14.525 68.50833 15.134375 68.00833Q15.759375 67.50833 16.696875 67.50833Q17.384375 67.50833 17.9 67.78958Q18.43125 68.07083 18.775 68.60208Q19.11875 69.11771 19.30625 69.86771Q19.49375 70.61771 19.49375 71.89896Q19.49375 73.41458 19.18125 74.33646Q18.884375 75.25833 18.259375 75.77396Q17.65 76.27396 16.696875 76.27396Q15.4625 76.27396 14.74375 75.38333Q13.9 74.32083 13.9 71.89896ZM14.978125 71.89896Q14.978125 74.00833 15.478125 74.71146Q15.978125 75.41458 16.696875 75.41458Q17.43125 75.41458 17.915625 74.71146Q18.415625 74.00833 18.415625 71.89896Q18.415625 69.77396 17.915625 69.08646Q17.43125 68.38333 16.68125 68.38333Q15.9625 68.38333 15.525 68.99271Q14.978125 69.77396 14.978125 71.89896ZM20.9 71.89896Q20.9 70.36771 21.2125 69.44583Q21.525 68.50833 22.134375 68.00833Q22.759375 67.50833 23.696875 67.50833Q24.384375 67.50833 24.9 67.78958Q25.43125 68.07083 25.775 68.60208Q26.11875 69.11771 26.30625 69.86771Q26.49375 70.61771 26.49375 71.89896Q26.49375 73.41458 26.18125 74.33646Q25.884375 75.25833 25.259375 75.77396Q24.65 76.27396 23.696875 76.27396Q22.4625 76.27396 21.74375 75.38333Q20.9 74.32083 20.9 71.89896ZM21.978125 71.89896Q21.978125 74.00833 22.478125 74.71146Q22.978125 75.41458 23.696875 75.41458Q24.43125 75.41458 24.915625 74.71146Q25.415625 74.00833 25.415625 71.89896Q25.415625 69.77396 24.915625 69.08646Q24.43125 68.38333 23.68125 68.38333Q22.9625 68.38333 22.525 68.99271Q21.978125 69.77396 21.978125 71.89896Z"
          fill-rule="nonzero"/>
    <path fill="#000000"
          d="M10.86875 54.9L9.821875 54.9L9.821875 48.18125Q9.43125 48.540627 8.80625 48.915627Q8.196875 49.275 7.7125 49.446877L7.7125 48.43125Q8.5875 48.009377 9.24375 47.43125Q9.915625 46.8375 10.196875 46.275L10.86875 46.275L10.86875 54.9ZM13.9 52.65L15.009375 52.55625Q15.134375 53.36875 15.571875 53.775Q16.025 54.18125 16.665625 54.18125Q17.415625 54.18125 17.946875 53.603127Q18.478125 53.025 18.478125 52.0875Q18.478125 51.18125 17.9625 50.665627Q17.4625 50.134377 16.634375 50.134377Q16.134375 50.134377 15.7125 50.36875Q15.30625 50.603127 15.071875 50.9625L14.0875 50.8375L14.915625 46.43125L19.196875 46.43125L19.196875 47.43125L15.759375 47.43125L15.30625 49.74375Q16.071875 49.196877 16.915625 49.196877Q18.040625 49.196877 18.80625 49.978127Q19.5875 50.759377 19.5875 51.99375Q19.5875 53.15 18.915625 54.009377Q18.0875 55.040627 16.665625 55.040627Q15.49375 55.040627 14.74375 54.384377Q14.009375 53.728127 13.9 52.65ZM20.9 50.665627Q20.9 49.134377 21.2125 48.2125Q21.525 47.275 22.134375 46.775Q22.759375 46.275 23.696875 46.275Q24.384375 46.275 24.9 46.55625Q25.43125 46.8375 25.775 47.36875Q26.11875 47.884377 26.30625 48.634377Q26.49375 49.384377 26.49375 50.665627Q26.49375 52.18125 26.18125 53.103127Q25.884375 54.025 25.259375 54.540627Q24.65 55.040627 23.696875 55.040627Q22.4625 55.040627 21.74375 54.15Q20.9 53.0875 20.9 50.665627ZM21.978125 50.665627Q21.978125 52.775 22.478125 53.478127Q22.978125 54.18125 23.696875 54.18125Q24.43125 54.18125 24.915625 53.478127Q25.415625 52.775 25.415625 50.665627Q25.415625 48.540627 24.915625 47.853127Q24.43125 47.15 23.68125 47.15Q22.9625 47.15 22.525 47.759377Q21.978125 48.540627 21.978125 50.665627Z"
          fill-rule="nonzero"/>
    <path fill="#000000"
          d="M12.446875 32.651043L12.446875 33.666668L6.759375 33.666668Q6.759375 33.291668 6.884375 32.932293Q7.103125 32.354168 7.571875 31.791668Q8.05625 31.229168 8.9625 30.494793Q10.36875 29.338543 10.853125 28.666668Q11.353125 27.994793 11.353125 27.401043Q11.353125 26.776043 10.9 26.354168Q10.446875 25.916668 9.728125 25.916668Q8.9625 25.916668 8.509375 26.369793Q8.05625 26.822918 8.040625 27.635418L6.9625 27.526043Q7.071875 26.307293 7.790625 25.682293Q8.525 25.041668 9.759375 25.041668Q10.99375 25.041668 11.7125 25.729168Q12.43125 26.416668 12.43125 27.432293Q12.43125 27.947918 12.2125 28.447918Q12.009375 28.932293 11.509375 29.494793Q11.025 30.041668 9.9 30.994793Q8.946875 31.791668 8.665625 32.088543Q8.4 32.369793 8.228125 32.651043L12.446875 32.651043ZM13.9 29.432293Q13.9 27.901043 14.2125 26.979168Q14.525 26.041668 15.134375 25.541668Q15.759375 25.041668 16.696875 25.041668Q17.384375 25.041668 17.9 25.322918Q18.43125 25.604168 18.775 26.135418Q19.11875 26.651043 19.30625 27.401043Q19.49375 28.151043 19.49375 29.432293Q19.49375 30.947918 19.18125 31.869793Q18.884375 32.791668 18.259375 33.307293Q17.65 33.807293 16.696875 33.807293Q15.4625 33.807293 14.74375 32.916668Q13.9 31.854168 13.9 29.432293ZM14.978125 29.432293Q14.978125 31.541668 15.478125 32.244793Q15.978125 32.947918 16.696875 32.947918Q17.43125 32.947918 17.915625 32.244793Q18.415625 31.541668 18.415625 29.432293Q18.415625 27.307293 17.915625 26.619793Q17.43125 25.916668 16.68125 25.916668Q15.9625 25.916668 15.525 26.526043Q14.978125 27.307293 14.978125 29.432293ZM20.9 29.432293Q20.9 27.901043 21.2125 26.979168Q21.525 26.041668 22.134375 25.541668Q22.759375 25.041668 23.696875 25.041668Q24.384375 25.041668 24.9 25.322918Q25.43125 25.604168 25.775 26.135418Q26.11875 26.651043 26.30625 27.401043Q26.49375 28.151043 26.49375 29.432293Q26.49375 30.947918 26.18125 31.869793Q25.884375 32.791668 25.259375 33.307293Q24.65 33.807293 23.696875 33.807293Q22.4625 33.807293 21.74375 32.916668Q20.9 31.854168 20.9 29.432293ZM21.978125 29.432293Q21.978125 31.541668 22.478125 32.244793Q22.978125 32.947918 23.696875 32.947918Q24.43125 32.947918 24.915625 32.244793Q25.415625 31.541668 25.415625 29.432293Q25.415625 27.307293 24.915625 26.619793Q24.43125 25.916668 23.68125 25.916668Q22.9625 25.916668 22.525 26.526043Q21.978125 27.307293 21.978125 29.432293Z"
          fill-rule="nonzero"/>
    <path fill="#4285f4"
          d="M343.0 7.4C343.0 6.8477154 343.44772 6.4 344.0 6.4L354.0 6.4C354.55228 6.4 355.0 6.8477154 355.0 7.4L355.0 17.4C355.0 17.952284 354.55228 18.4 354.0 18.4L344.0 18.4C343.44772 18.4 343.0 17.952284 343.0 17.4Z"
          fill-rule="nonzero"/>
    <path stroke="#ea4335" stroke-width="4.0" stroke-linecap="butt" d="M371.0 12.4L383.0 12.4" fill-rule="nonzero"/>
</svg>